# xmcd CD database file
#
# Track frame offsets:
#	150
#	10197
#	22356
#	31379
#	41907
#	53172
#	63259
#	72977
#	83004
#	93138
#	102833
#	112225
#	122759
#	133327
#	143676
#	153701
#	164335
#	175209
#	185183
#	195492
#	204718
#	214670
#	225298
#	235151
#	248178
#	257662
#	267402
#	278097
#	288517
#	300899
#	312108
#	323119
#
# Disc length: 4455 seconds
#
# Revision: 3
# Processed by: cddbd v1.5.2PL0 Copyright (c) Steve Scherf et al.
# Submitted via: jetAudio 7
#
DISCID=d2116520
DTITLE=Chet Atkins - The Early Years 1946-1957 Disc 3
DYEAR=1900
DGENRE=Country
TTITLE0=Dream Train
TTITLE1=Meet Mister Callaghan
TTITLE2=Chinatown, My Chinatown
TTITLE3=High Rockin' Swing
TTITLE4=Pig Leaf Rag
TTITLE5=Oh! By Jingo, Oh! By Gee! (You're The Only Girl For Me)
TTITLE6=Hello Ma Baby
TTITLE7=The Bells Of St. Mary's
TTITLE8=Country Gentleman
TTITLE9=Memphis Blues
TTITLE10=Alice Blue Gown
TTITLE11=Twelfth Street Rag
TTITLE12=Peeping Tom
TTITLE13=Three O'Clock In The Morning
TTITLE14=Georgia Camp Meeting
TTITLE15=City Slicker
TTITLE16=Dill Pickle Rag
TTITLE17=Rubber Doll Rag
TTITLE18=Beautiful Ohio
TTITLE19=Kentucky Derby
TTITLE20=Wildwood Flower
TTITLE21=Guitars On Parade
TTITLE22=Simple Simon
TTITLE23=Get Up And Go
TTITLE24=Pagan Love Song
TTITLE25=Beautiful Ohio
TTITLE26=Downhill Drag
TTITLE27=Avalon
TTITLE28=Sunrise Serenade
TTITLE29=San Antonio Rose
TTITLE30=Set A Spell
TTITLE31=Mister Misery
EXTD=
EXTT0=
EXTT1=
EXTT2=
EXTT3=
EXTT4=
EXTT5=
EXTT6=
EXTT7=
EXTT8=
EXTT9=
EXTT10=
EXTT11=
EXTT12=
EXTT13=
EXTT14=
EXTT15=
EXTT16=
EXTT17=
EXTT18=
EXTT19=
EXTT20=
EXTT21=
EXTT22=
EXTT23=
EXTT24=
EXTT25=
EXTT26=
EXTT27=
EXTT28=
EXTT29=
EXTT30=
EXTT31=
PLAYORDER=
